# This file uses centimeters as units for non-parametric coordinates.

v 0.215619 0.464134 0.533200
v 0.440926 0.418883 0.532937
v 0.441070 0.296889 0.471425
v 0.310923 0.234888 0.219805
v 0.353020 0.148739 0.085138
v 0.330265 0.052388 0.020226
v 0.330265 -0.052980 0.020226
v 0.353020 -0.149331 0.085138
v 0.310923 -0.235481 0.219805
v 0.439819 -0.297481 0.471425
v 0.436381 -0.419475 0.532937
v 0.215619 -0.464721 0.533330
v 0.154283 0.505675 0.137488
v 0.322945 0.438303 -0.260345
v 0.395978 0.335654 -0.241869
v 0.267462 0.279466 -0.240088
v 0.225595 0.161848 -0.462199
v 0.211054 0.055046 -0.521541
v 0.211054 -0.055638 -0.521541
v 0.225595 -0.162440 -0.462199
v 0.267462 -0.280058 -0.240088
v 0.395978 -0.336246 -0.241869
v 0.322945 -0.438895 -0.260345
v 0.154283 -0.506263 0.137618
v -0.154283 0.505675 0.137488
v -0.322945 0.438303 -0.260345
v -0.383626 0.335654 -0.282225
v -0.267462 0.279466 -0.240088
v -0.225595 0.161848 -0.462199
v -0.211054 0.055046 -0.521541
v -0.211054 -0.055638 -0.521541
v -0.225595 -0.162440 -0.462199
v -0.267462 -0.280058 -0.240088
v -0.383626 -0.336246 -0.282225
v -0.322945 -0.438895 -0.260345
v -0.154283 -0.506263 0.137618
v -0.215619 0.464134 0.533200
v -0.440926 0.418883 0.532937
v -0.441070 0.296889 0.471425
v -0.310923 0.234888 0.219805
v -0.353020 0.148739 0.085138
v -0.330265 0.052388 0.020226
v -0.330265 -0.052980 0.020226
v -0.353020 -0.149331 0.085138
v -0.310923 -0.235481 0.219805
v -0.439819 -0.297481 0.471425
v -0.436381 -0.419475 0.532937
v -0.215619 -0.464721 0.533330
v 0.389223 0.144638 -0.154246
v 0.397193 0.256298 -0.016387
v 0.527907 0.305623 0.092679
v 0.515750 0.425183 0.238764
v 0.252507 0.487085 0.346774
v -0.252507 0.487085 0.346774
v -0.515750 0.425183 0.238764
v -0.527907 0.305623 0.092679
v -0.397193 0.256298 -0.016387
v -0.389223 0.144638 -0.154246
v -0.364134 0.053665 -0.232667
v -0.364134 -0.054257 -0.232667
v -0.389223 -0.145230 -0.154246
v -0.397193 -0.256890 -0.016387
v -0.527907 -0.306215 0.092679
v -0.515750 -0.425775 0.238764
v -0.252507 -0.487672 0.346904
v 0.252507 -0.487672 0.346904
v 0.515750 -0.425775 0.238764
v 0.527907 -0.306215 0.092679
v 0.397193 -0.256890 -0.016387
v 0.389223 -0.145230 -0.154246
v 0.364134 -0.054257 -0.232667
v 0.364134 0.053665 -0.232667
v 0.020871 0.335654 -0.438671
v 0.011394 0.438303 -0.335650
v 0.007029 0.516376 0.108846
v 0.007029 0.505515 0.388926
v 0.007029 0.460017 0.566639
v 0.014356 0.416292 0.615258
v 0.014695 0.288902 0.591370
v 0.011056 0.234888 0.301789
v 0.009827 0.148739 0.158003
v 0.009193 0.052388 0.099888
v 0.009193 -0.052980 0.099888
v 0.009827 -0.149331 0.158003
v 0.011056 -0.235481 0.301789
v 0.014695 -0.289494 0.591370
v 0.014356 -0.416885 0.615258
v 0.007029 -0.460605 0.566769
v 0.007029 -0.506103 0.389056
v 0.007029 -0.516964 0.108976
v 0.011394 -0.438895 -0.335650
v 0.020871 -0.336246 -0.438671
v 0.011056 -0.280058 -0.360702
v 0.006280 -0.162440 -0.528357
v 0.005875 -0.055638 -0.593870
v 0.005875 0.055046 -0.593870
v 0.006280 0.161848 -0.528357
v 0.011056 0.279466 -0.360702
vt 0.375000 0.000000
vt 0.397727 0.000000
vt 0.420455 0.000000
vt 0.443182 0.000000
vt 0.465909 0.000000
vt 0.488636 0.000000
vt 0.511364 0.000000
vt 0.534091 0.000000
vt 0.556818 0.000000
vt 0.579545 0.000000
vt 0.602273 0.000000
vt 0.625000 0.000000
vt 0.375000 0.250000
vt 0.397727 0.250000
vt 0.420455 0.250000
vt 0.443182 0.250000
vt 0.465909 0.250000
vt 0.488636 0.250000
vt 0.511364 0.250000
vt 0.534091 0.250000
vt 0.556818 0.250000
vt 0.579545 0.250000
vt 0.602273 0.250000
vt 0.625000 0.250000
vt 0.375000 0.500000
vt 0.397727 0.500000
vt 0.420455 0.500000
vt 0.443182 0.500000
vt 0.465909 0.500000
vt 0.488636 0.500000
vt 0.511364 0.500000
vt 0.534091 0.500000
vt 0.556818 0.500000
vt 0.579545 0.500000
vt 0.602273 0.500000
vt 0.625000 0.500000
vt 0.375000 0.750000
vt 0.397727 0.750000
vt 0.420455 0.750000
vt 0.443182 0.750000
vt 0.465909 0.750000
vt 0.488636 0.750000
vt 0.511364 0.750000
vt 0.534091 0.750000
vt 0.556818 0.750000
vt 0.579545 0.750000
vt 0.602273 0.750000
vt 0.625000 0.750000
vt 0.375000 1.000000
vt 0.397727 1.000000
vt 0.420455 1.000000
vt 0.443182 1.000000
vt 0.465909 1.000000
vt 0.488636 1.000000
vt 0.511364 1.000000
vt 0.534091 1.000000
vt 0.556818 1.000000
vt 0.579545 1.000000
vt 0.602273 1.000000
vt 0.625000 1.000000
vt 0.875000 0.000000
vt 0.875000 0.250000
vt 0.125000 0.000000
vt 0.125000 0.250000
vt 0.465909 0.120068
vt 0.443182 0.120068
vt 0.420455 0.120068
vt 0.397727 0.120068
vt 0.375000 0.120068
vt 0.125000 0.120068
vt 0.375000 0.629932
vt 0.397727 0.629932
vt 0.420455 0.629932
vt 0.443182 0.629932
vt 0.465909 0.629932
vt 0.488636 0.629932
vt 0.511364 0.629932
vt 0.534091 0.629932
vt 0.556818 0.629932
vt 0.579545 0.629932
vt 0.602273 0.629932
vt 0.625000 0.629932
vt 0.875000 0.120068
vt 0.625000 0.120068
vt 0.602273 0.120068
vt 0.579545 0.120068
vt 0.556818 0.120068
vt 0.534091 0.120068
vt 0.511364 0.120068
vt 0.488636 0.120068
vt 0.420455 0.371520
vt 0.397727 0.371520
vt 0.253480 0.250000
vt 0.375000 0.371520
vt 0.253480 0.120068
vt 0.253480 0.000000
vt 0.375000 0.878479
vt 0.397727 0.878479
vt 0.420455 0.878479
vt 0.443182 0.878479
vt 0.465909 0.878479
vt 0.488636 0.878479
vt 0.511364 0.878479
vt 0.534091 0.878479
vt 0.556818 0.878479
vt 0.579545 0.878479
vt 0.602273 0.878479
vt 0.625000 0.878479
vt 0.746520 0.000000
vt 0.746520 0.120068
vt 0.625000 0.371520
vt 0.746520 0.250000
vt 0.602273 0.371520
vt 0.579545 0.371520
vt 0.556818 0.371520
vt 0.534091 0.371520
vt 0.511364 0.371520
vt 0.488636 0.371520
vt 0.465909 0.371520
vt 0.443182 0.371520
vn 0.148637 0.937838 0.313636
vn 0.575502 0.414689 0.704862
vn 0.629708 0.776551 0.020875
vn 0.190815 0.980851 0.038991
vn 0.438345 -0.780357 0.445978
vn 0.923398 -0.349277 -0.159191
vn 0.203260 -0.948150 0.244328
vn 0.736106 -0.666499 -0.118014
vn 0.600075 -0.570872 0.560371
vn 0.959353 0.156954 -0.234538
vn 0.668976 -0.301912 0.679205
vn 0.958743 0.019303 -0.283619
vn 0.668976 0.301912 0.679205
vn 0.958743 -0.019303 -0.283619
vn 0.600075 0.570872 0.560371
vn 0.959353 -0.156954 -0.234538
vn 0.203724 0.947957 0.244693
vn 0.736365 0.666253 -0.117788
vn 0.440307 0.779804 0.445012
vn 0.924419 0.347250 -0.157693
vn 0.573539 -0.411404 0.708378
vn 0.630232 -0.776047 0.023628
vn 0.149759 -0.937222 0.314939
vn 0.191434 -0.980707 0.039575
vn 0.144918 0.987072 -0.068466
vn 0.332108 0.873945 -0.354858
vn 0.005216 0.903048 -0.429507
vn -0.000171 0.994614 -0.103649
vn 0.825497 0.034461 -0.563353
vn 0.039919 -0.031181 -0.998716
vn 0.729518 0.005896 -0.683936
vn 0.007556 0.392962 -0.919524
vn 0.531971 0.595757 -0.601731
vn -0.002320 0.730050 -0.683390
vn 0.656501 0.175397 -0.733650
vn -0.000761 0.256233 -0.966615
vn 0.656501 -0.175397 -0.733650
vn -0.000761 -0.256233 -0.966615
vn 0.531971 -0.595757 -0.601731
vn -0.002320 -0.730050 -0.683390
vn 0.729518 -0.005896 -0.683936
vn 0.007556 -0.392962 -0.919524
vn 0.825497 -0.034461 -0.563353
vn 0.039919 0.031181 -0.998716
vn 0.332059 -0.873984 -0.354808
vn 0.005215 -0.903089 -0.429421
vn 0.144901 -0.987076 -0.068446
vn -0.000171 -0.994617 -0.103620
vn -0.187519 0.981429 0.040423
vn -0.631466 0.775182 0.018547
vn -0.563659 0.393882 0.726048
vn -0.144684 0.935604 0.322043
vn -0.930763 -0.326224 -0.165103
vn -0.422767 -0.783750 0.454978
vn -0.719541 -0.684643 -0.116295
vn -0.194487 -0.949057 0.247924
vn -0.959353 0.156954 -0.234538
vn -0.581327 -0.581263 0.569378
vn -0.958743 0.019303 -0.283619
vn -0.650724 -0.304679 0.695506
vn -0.958743 -0.019303 -0.283619
vn -0.650724 0.304679 0.695506
vn -0.959353 -0.156954 -0.234538
vn -0.581327 0.581263 0.569379
vn -0.719792 0.684416 -0.116077
vn -0.194929 0.948873 0.248282
vn -0.931723 0.324210 -0.163648
vn -0.424663 0.783356 0.453888
vn -0.631993 -0.774682 0.021271
vn -0.561541 -0.390424 0.729549
vn -0.188117 -0.981290 0.041001
vn -0.145752 -0.934981 0.323367
vn -0.003050 0.914966 0.403520
vn 0.002073 -0.078589 0.996905
vn 0.000354 -0.828760 0.559604
vn -0.000101 -0.957228 0.289335
vn 0.000019 -0.745790 0.666181
vn -0.000145 -0.318112 0.948053
vn -0.000145 0.318112 0.948053
vn 0.000019 0.745790 0.666181
vn -0.000101 0.957159 0.289562
vn 0.000354 0.828872 0.559439
vn 0.002087 0.078120 0.996942
vn -0.003070 -0.915033 0.403368
vn -0.000043 -0.992817 0.119644
vn -0.000043 0.992817 0.119644
vn -0.139482 0.987757 -0.069862
vn -0.338152 0.875494 -0.345201
vn -0.773659 0.038989 -0.632401
vn -0.717463 -0.058221 -0.694159
vn -0.511835 0.610419 -0.604495
vn -0.643060 0.179946 -0.744375
vn -0.643060 -0.179947 -0.744375
vn -0.511835 -0.610419 -0.604495
vn -0.717463 0.058221 -0.694159
vn -0.773660 -0.038989 -0.632401
vn -0.338104 -0.875531 -0.345155
vn -0.139465 -0.987761 -0.069842
s 1
f 1/1/1 2/2/2 52/68/3 53/69/4
f 2/2/2 3/3/5 51/67/6 52/68/3
f 3/3/5 4/4/7 50/66/8 51/67/6
f 4/4/7 5/5/9 49/65/10 50/66/8
f 5/5/9 6/6/11 72/90/12 49/65/10
f 6/6/11 7/7/13 71/89/14 72/90/12
f 7/7/13 8/8/15 70/88/16 71/89/14
f 8/8/15 9/9/17 69/87/18 70/88/16
f 9/9/17 10/10/19 68/86/20 69/87/18
f 10/10/19 11/11/21 67/85/22 68/86/20
f 11/11/21 12/12/23 66/84/24 67/85/22
f 13/13/25 14/14/26 74/92/27 75/94/28
f 14/14/26 15/15/29 73/91/30 74/92/27
f 15/15/29 16/16/31 98/120/32 73/91/30
f 16/16/31 17/17/33 97/119/34 98/120/32
f 17/17/33 18/18/35 96/118/36 97/119/34
f 18/18/35 19/19/37 95/117/38 96/118/36
f 19/19/37 20/20/39 94/116/40 95/117/38
f 20/20/39 21/21/41 93/115/42 94/116/40
f 21/21/41 22/22/43 92/114/44 93/115/42
f 22/22/43 23/23/45 91/113/46 92/114/44
f 23/23/45 24/24/47 90/111/48 91/113/46
f 54/71/49 55/72/50 38/38/51 37/37/52
f 55/72/50 56/73/53 39/39/54 38/38/51
f 56/73/53 57/74/55 40/40/56 39/39/54
f 57/74/55 58/75/57 41/41/58 40/40/56
f 58/75/57 59/76/59 42/42/60 41/41/58
f 59/76/59 60/77/61 43/43/62 42/42/60
f 60/77/61 61/78/63 44/44/64 43/43/62
f 61/78/63 62/79/65 45/45/66 44/44/64
f 62/79/65 63/80/67 46/46/68 45/45/66
f 63/80/67 64/81/69 47/47/70 46/46/68
f 64/81/69 65/82/71 48/48/72 47/47/70
f 77/97/73 78/98/74 2/50/2 1/49/1
f 78/98/74 79/99/75 3/51/5 2/50/2
f 79/99/75 80/100/76 4/52/7 3/51/5
f 80/100/76 81/101/77 5/53/9 4/52/7
f 81/101/77 82/102/78 6/54/11 5/53/9
f 82/102/78 83/103/79 7/55/13 6/54/11
f 83/103/79 84/104/80 8/56/15 7/55/13
f 84/104/80 85/105/81 9/57/17 8/56/15
f 85/105/81 86/106/82 10/58/19 9/57/17
f 86/106/82 87/107/83 11/59/21 10/58/19
f 87/107/83 88/108/84 12/60/23 11/59/21
f 12/12/23 88/109/84 89/110/85 66/84/24
f 77/96/73 1/1/1 53/69/4 76/95/86
f 50/66/8 49/65/10 17/17/33 16/16/31
f 51/67/6 50/66/8 16/16/31 15/15/29
f 52/68/3 51/67/6 15/15/29 14/14/26
f 53/69/4 52/68/3 14/14/26 13/13/25
f 76/95/86 53/69/4 13/13/25 75/93/28
f 25/25/87 26/26/88 55/72/50 54/71/49
f 26/26/88 27/27/89 56/73/53 55/72/50
f 27/27/89 28/28/90 57/74/55 56/73/53
f 28/28/90 29/29/91 58/75/57 57/74/55
f 29/29/91 30/30/92 59/76/59 58/75/57
f 30/30/92 31/31/93 60/77/61 59/76/59
f 31/31/93 32/32/94 61/78/63 60/77/61
f 32/32/94 33/33/95 62/79/65 61/78/63
f 33/33/95 34/34/96 63/80/67 62/79/65
f 34/34/96 35/35/97 64/81/69 63/80/67
f 35/35/97 36/36/98 65/82/71 64/81/69
f 66/84/24 89/110/85 90/112/48 24/24/47
f 67/85/22 66/84/24 24/24/47 23/23/45
f 68/86/20 67/85/22 23/23/45 22/22/43
f 69/87/18 68/86/20 22/22/43 21/21/41
f 70/88/16 69/87/18 21/21/41 20/20/39
f 71/89/14 70/88/16 20/20/39 19/19/37
f 72/90/12 71/89/14 19/19/37 18/18/35
f 49/65/10 72/90/12 18/18/35 17/17/33
f 74/92/27 73/91/30 27/27/89 26/26/88
f 75/94/28 74/92/27 26/26/88 25/25/87
f 54/70/49 76/95/86 75/93/28 25/64/87
f 37/63/52 77/96/73 76/95/86 54/70/49
f 37/37/52 38/38/51 78/98/74 77/97/73
f 38/38/51 39/39/54 79/99/75 78/98/74
f 39/39/54 40/40/56 80/100/76 79/99/75
f 40/40/56 41/41/58 81/101/77 80/100/76
f 41/41/58 42/42/60 82/102/78 81/101/77
f 42/42/60 43/43/62 83/103/79 82/102/78
f 43/43/62 44/44/64 84/104/80 83/103/79
f 44/44/64 45/45/66 85/105/81 84/104/80
f 45/45/66 46/46/68 86/106/82 85/105/81
f 46/46/68 47/47/70 87/107/83 86/106/82
f 47/47/70 48/48/72 88/108/84 87/107/83
f 89/110/85 88/109/84 48/61/72 65/83/71
f 90/112/48 89/110/85 65/83/71 36/62/98
f 91/113/46 90/111/48 36/36/98 35/35/97
f 92/114/44 91/113/46 35/35/97 34/34/96
f 93/115/42 92/114/44 34/34/96 33/33/95
f 94/116/40 93/115/42 33/33/95 32/32/94
f 95/117/38 94/116/40 32/32/94 31/31/93
f 96/118/36 95/117/38 31/31/93 30/30/92
f 97/119/34 96/118/36 30/30/92 29/29/91
f 98/120/32 97/119/34 29/29/91 28/28/90
f 73/91/30 98/120/32 28/28/90 27/27/89
