# This file uses centimeters as units for non-parametric coordinates.

mtllib heart_lo.mtl
g default
v 0.000000 -0.431813 0.060955
v 0.527868 0.050347 0.338381
v -0.527868 0.050347 0.338381
v 0.000000 0.616716 0.420000
v -0.527868 0.050347 -0.338381
v 0.000000 0.616716 -0.420000
v 0.000000 -0.431813 -0.060955
v 0.527868 0.050347 -0.338381
v -0.890098 0.497261 0.277778
v -0.497261 0.942719 0.277778
v -0.497261 0.942719 -0.277778
v -0.890098 0.497261 -0.277778
v 0.890098 0.497261 -0.277778
v 0.890098 0.497261 0.277778
v 0.497261 0.942719 -0.277778
v 0.497261 0.942719 0.277778
v 0.058187 -0.403797 0.082289
v -0.319828 0.319828 0.500000
v -0.319828 0.319828 -0.500000
v 0.058187 -0.403797 -0.082289
v -0.058187 -0.403797 0.082289
v 0.319828 0.319828 0.500000
v -0.607625 -0.029410 0.000000
v -0.000000 0.769211 0.000000
v -0.058187 -0.403797 -0.082289
v 0.319828 0.319828 -0.500000
v 0.000000 -0.511942 0.000000
v 0.607625 -0.029410 0.000000
v -0.837371 0.307041 0.375000
v -0.094441 0.837371 0.375000
v -0.736195 0.736195 0.375000
v -0.094441 0.837371 -0.375000
v -0.471030 1.053981 0.000000
v -0.837371 0.307041 -0.375000
v -0.736195 0.736195 -0.375000
v -1.001360 0.471030 0.000000
v 0.837371 0.307041 -0.375000
v 0.837371 0.307041 0.375000
v 1.001360 0.471030 0.000000
v 0.094441 0.837371 -0.375000
v 0.736195 0.736195 -0.375000
v 0.094441 0.837371 0.375000
v 0.471030 1.053981 0.000000
v 0.736195 0.736195 0.375000
v 0.000000 0.000000 0.500000
v -0.928176 0.871471 0.000000
v 0.000000 0.000000 -0.500000
v 0.077583 -0.423193 0.000000
v 0.928176 0.871471 0.000000
v -0.077583 -0.423193 0.000000
v -0.572206 0.572206 0.500000
v -0.067254 0.925759 0.000000
v -0.572206 0.572206 -0.500000
v -0.925759 0.218652 0.000000
v 0.925759 0.218652 0.000000
v 0.572206 0.572206 -0.500000
v 0.067254 0.925759 0.000000
v 0.572206 0.572206 0.500000
vt 0.238069 0.163872
vt 0.322345 0.254660
vt 0.238069 0.345449
vt 0.147281 0.254660
vt 0.384982 0.227852
vt 0.309710 0.092231
vt 0.384982 0.281469
vt 0.309710 0.417090
vt 0.161573 0.404504
vt 0.032656 0.271178
vt 0.032656 0.238143
vt 0.161573 0.104817
vt 0.234439 0.016959
vt 0.356261 0.045680
vt 0.414886 0.113505
vt 0.414886 0.395816
vt 0.356261 0.463641
vt 0.234439 0.492361
vt 0.024704 0.254660
vt 0.288436 0.001992
vt 0.288436 0.507329
vt 0.001958 0.254660
vt 0.027151 0.276683
vt 0.027151 0.232637
vt 0.317585 0.511252
vt 0.385410 0.538850
vt 0.392857 0.617701
vt 0.263088 0.617701
vt 0.499757 0.511252
vt 0.507475 0.617701
vt 0.385410 0.696553
vt 0.317585 0.724151
vt 0.499757 0.724151
vt 0.364136 0.759634
vt 0.767917 0.825395
vt 0.795515 0.757569
vt 0.874366 0.750124
vt 0.874366 0.863795
vt 0.767917 0.703573
vt 0.732433 0.778844
vt 0.874366 0.678482
vt 0.953218 0.757569
vt 0.980816 0.825395
vt 0.778312 0.630706
vt 0.874366 0.608066
vt 0.980816 0.703573
vt 0.851007 0.501790
vt 0.874366 0.496284
vt 0.970421 0.630706
vt 0.897725 0.501790
vt 0.598435 0.345449
vt 0.514158 0.254660
vt 0.598435 0.163872
vt 0.689223 0.254660
vt 0.451522 0.281469
vt 0.526793 0.417090
vt 0.451522 0.227852
vt 0.526793 0.092231
vt 0.674931 0.104817
vt 0.803848 0.238143
vt 0.803848 0.271178
vt 0.674931 0.404504
vt 0.602065 0.492361
vt 0.421617 0.113505
vt 0.480242 0.045680
vt 0.602065 0.016959
vt 0.811800 0.254660
vt 0.548068 0.001992
vt 0.834546 0.254660
vt 0.809353 0.232637
vt 0.809353 0.276684
vt 0.619954 0.750124
vt 0.698806 0.757569
vt 0.726404 0.825395
vt 0.619954 0.863795
vt 0.726404 0.703573
vt 0.619954 0.678482
vt 0.513504 0.825395
vt 0.541102 0.757569
vt 0.513504 0.703573
vt 0.619954 0.608066
vt 0.716009 0.630706
vt 0.523899 0.630706
vt 0.643313 0.501790
vt 0.619954 0.496284
vt 0.596595 0.501790
vt 0.257059 0.565748
vt 0.229461 0.633574
vt 0.150609 0.641020
vt 0.150609 0.511252
vt 0.257059 0.747920
vt 0.150609 0.755638
vt 0.071757 0.633574
vt 0.044159 0.565748
vt 0.044159 0.747920
vt 0.139291 0.878784
vt 0.096003 0.759561
vt 0.158639 0.772335
vt 0.183730 0.878784
vt 0.158639 0.985234
vt 0.096003 0.998008
vt 0.045246 0.878784
vt 0.001958 0.759561
vt 0.064594 0.772335
vt 0.089684 0.878784
vt 0.064594 0.985234
vt 0.001958 0.998008
vn 0.414318 -0.714827 0.563350
vn 0.414048 -0.620862 0.665653
vn 0.118583 -0.174909 0.977418
vn 0.000000 -0.422580 0.906326
vn 0.000000 0.231922 0.972735
vn -0.118583 -0.174909 0.977418
vn -0.414048 -0.620862 0.665653
vn -0.414318 -0.714827 0.563350
vn 0.000000 -0.732480 0.680789
vn -0.489028 0.532112 0.691164
vn -0.112929 0.817638 0.564548
vn -0.072266 0.997385 -0.000000
vn -0.752746 0.658311 -0.000000
vn -0.112929 0.817638 -0.564548
vn -0.489028 0.532112 -0.691164
vn -0.843522 0.096253 -0.528399
vn -0.997949 0.064018 0.000000
vn -0.843522 0.096253 0.528399
vn -0.118583 -0.174909 -0.977418
vn 0.000000 0.231922 -0.972735
vn 0.118583 -0.174909 -0.977418
vn 0.000000 -0.422580 -0.906326
vn 0.414048 -0.620862 -0.665653
vn 0.414318 -0.714827 -0.563350
vn 0.000000 -0.732480 -0.680789
vn -0.414318 -0.714827 -0.563350
vn -0.414048 -0.620862 -0.665653
vn 0.606089 -0.795397 0.000000
vn 0.596193 -0.802841 0.000000
vn 0.000000 -1.000000 0.000000
vn 0.997949 0.064018 0.000000
vn 0.843522 0.096253 -0.528399
vn 0.489028 0.532112 -0.691164
vn 0.752746 0.658311 0.000000
vn 0.112929 0.817638 -0.564548
vn 0.072266 0.997385 0.000000
vn 0.112929 0.817638 0.564548
vn 0.489028 0.532112 0.691164
vn 0.843522 0.096253 0.528399
vn -0.596193 -0.802841 -0.000000
vn -0.606089 -0.795397 -0.000000
vn 0.360601 0.618450 0.698202
vn -0.161107 0.145191 0.976199
vn -0.591409 -0.427344 0.683822
vn 0.000000 1.000000 -0.000000
vn 0.360601 0.618450 -0.698202
vn 0.514761 0.857334 0.000000
vn -0.591409 -0.427344 -0.683822
vn -0.161107 0.145191 -0.976199
vn -0.776122 -0.630583 -0.000000
vn 0.591409 -0.427344 -0.683822
vn 0.776122 -0.630583 0.000000
vn 0.591409 -0.427344 0.683822
vn -0.360601 0.618450 -0.698202
vn 0.161107 0.145191 -0.976199
vn -0.360601 0.618450 0.698202
vn -0.514761 0.857334 -0.000000
vn 0.161107 0.145191 0.976199
s 1
g pCube2
usemtl lambert5SG1
f 17/11/1 2/12/2 22/1/3 45/4/4
f 22/1/3 4/2/5 18/3/6 45/4/4
f 18/3/6 3/9/7 21/10/8 45/4/4
f 21/10/8 1/19/9 17/11/1 45/4/4
f 31/25/10 10/26/11 33/27/12 46/28/13
f 33/27/12 11/31/14 35/32/15 46/28/13
f 35/35/15 12/36/16 36/37/17 46/38/13
f 36/37/17 9/42/18 31/43/10 46/38/13
f 19/51/19 6/52/20 26/53/21 47/54/22
f 26/53/21 8/59/23 20/60/24 47/54/22
f 20/60/24 7/67/25 25/61/26 47/54/22
f 25/61/26 5/62/27 19/51/19 47/54/22
f 20/84/24 8/82/23 28/81/28 48/85/29
f 28/81/28 2/83/2 17/86/1 48/85/29
f 17/11/1 1/19/9 27/22/30 48/24/29
f 27/69/30 7/67/25 20/60/24 48/70/29
f 39/72/31 13/73/32 41/74/33 49/75/34
f 41/87/33 15/88/35 43/89/36 49/90/34
f 43/89/36 16/93/37 44/94/38 49/90/34
f 44/78/38 14/79/39 39/72/31 49/75/34
f 27/22/30 1/19/9 21/10/8 50/23/40
f 21/50/8 3/49/7 23/45/41 50/48/40
f 23/45/41 5/44/27 25/47/26 50/48/40
f 25/61/26 7/67/25 27/69/30 50/71/40
f 18/3/6 4/2/5 30/7/42 51/8/43
f 30/7/42 10/16/11 31/17/10 51/8/43
f 31/17/10 9/21/18 29/18/44 51/8/43
f 29/18/44 3/9/7 18/3/6 51/8/43
f 24/96/45 6/97/20 32/98/46 52/99/47
f 32/33/46 11/31/14 33/27/12 52/30/47
f 33/27/12 10/26/11 30/29/42 52/30/47
f 30/100/42 4/101/5 24/96/45 52/99/47
f 19/51/19 5/62/27 34/63/48 53/56/49
f 34/39/48 12/36/16 35/35/15 53/40/49
f 35/32/15 11/31/14 32/33/46 53/34/49
f 32/55/46 6/52/20 19/51/19 53/56/49
f 23/45/41 3/49/7 29/46/44 54/41/50
f 29/46/44 9/42/18 36/37/17 54/41/50
f 36/37/17 12/36/16 34/39/48 54/41/50
f 34/39/48 5/44/27 23/45/41 54/41/50
f 28/81/28 8/82/23 37/76/51 55/77/52
f 37/76/51 13/73/32 39/72/31 55/77/52
f 39/72/31 14/79/39 38/80/53 55/77/52
f 38/80/53 2/83/2 28/81/28 55/77/52
f 26/53/21 6/52/20 40/57/54 56/58/55
f 40/57/54 15/64/35 41/65/33 56/58/55
f 41/65/33 13/68/32 37/66/51 56/58/55
f 37/66/51 8/59/23 26/53/21 56/58/55
f 24/102/45 4/103/5 42/104/56 57/105/57
f 42/95/56 16/93/37 43/89/36 57/92/57
f 43/89/36 15/88/35 40/91/54 57/92/57
f 40/106/54 6/107/20 24/102/45 57/105/57
f 22/1/3 2/12/2 38/13/53 58/6/58
f 38/13/53 14/20/39 44/14/38 58/6/58
f 44/14/38 16/15/37 42/5/56 58/6/58
f 42/5/56 4/2/5 22/1/3 58/6/58
